<svg id="visual" viewBox="0 0 1920 350" width="1920" height="350" xmlns="http://www.w3.org/2000/svg" xmlns:xlink="http://www.w3.org/1999/xlink" version="1.1"><path d="M0 19L148 47L295 29L443 43L591 29L738 47L886 15L1034 22L1182 15L1329 54L1477 40L1625 19L1772 29L1920 54L1920 0L1772 0L1625 0L1477 0L1329 0L1182 0L1034 0L886 0L738 0L591 0L443 0L295 0L148 0L0 0Z" fill="#2854cc"></path><path d="M0 57L148 82L295 75L443 57L591 78L738 61L886 61L1034 78L1182 40L1329 106L1477 61L1625 78L1772 61L1920 68L1920 52L1772 27L1625 17L1477 38L1329 52L1182 13L1034 20L886 13L738 45L591 27L443 41L295 27L148 45L0 17Z" fill="#5272d9"></path><path d="M0 120L148 169L295 176L443 173L591 127L738 200L886 159L1034 123L1182 127L1329 176L1477 152L1625 208L1772 211L1920 155L1920 66L1772 59L1625 76L1477 59L1329 104L1182 38L1034 76L886 59L738 59L591 76L443 55L295 73L148 80L0 55Z" fill="#7590e5"></path><path d="M0 141L148 239L295 250L443 264L591 215L738 236L886 208L1034 152L1182 176L1329 197L1477 183L1625 250L1772 292L1920 215L1920 153L1772 209L1625 206L1477 150L1329 174L1182 125L1034 121L886 157L738 198L591 125L443 171L295 174L148 167L0 118Z" fill="#97aeef"></path><path d="M0 292L148 295L295 281L443 323L591 330L738 292L886 278L1034 295L1182 302L1329 327L1477 299L1625 327L1772 334L1920 334L1920 213L1772 290L1625 248L1477 181L1329 195L1182 174L1034 150L886 206L738 234L591 213L443 262L295 248L148 237L0 139Z" fill="#bccdf7"></path><path d="M0 351L148 351L295 351L443 351L591 351L738 351L886 351L1034 351L1182 351L1329 351L1477 351L1625 351L1772 351L1920 351L1920 332L1772 332L1625 325L1477 297L1329 325L1182 300L1034 293L886 276L738 290L591 328L443 321L295 279L148 293L0 290Z" fill="#e2ebff"></path></svg>