<svg id="visual" viewBox="0 0 1920 350" width="1920" height="350" xmlns="http://www.w3.org/2000/svg" xmlns:xlink="http://www.w3.org/1999/xlink" version="1.1"><path d="M0 33L148 22L295 29L443 19L591 47L738 26L886 50L1034 54L1182 22L1329 29L1477 43L1625 36L1772 22L1920 40L1920 0L1772 0L1625 0L1477 0L1329 0L1182 0L1034 0L886 0L738 0L591 0L443 0L295 0L148 0L0 0Z" fill="#0a142e"></path><path d="M0 78L148 131L295 120L443 155L591 106L738 82L886 159L1034 106L1182 110L1329 92L1477 92L1625 145L1772 159L1920 85L1920 38L1772 20L1625 34L1477 41L1329 27L1182 20L1034 52L886 48L738 24L591 45L443 17L295 27L148 20L0 31Z" fill="#313853"></path><path d="M0 232L148 180L295 215L443 225L591 190L738 194L886 197L1034 215L1182 187L1329 190L1477 232L1625 194L1772 197L1920 211L1920 83L1772 157L1625 143L1477 90L1329 90L1182 108L1034 104L886 157L738 80L591 104L443 153L295 118L148 129L0 76Z" fill="#59617b"></path><path d="M0 274L148 232L295 274L443 253L591 222L738 218L886 236L1034 239L1182 222L1329 250L1477 285L1625 229L1772 225L1920 260L1920 209L1772 195L1625 192L1477 230L1329 188L1182 185L1034 213L886 195L738 192L591 188L443 223L295 213L148 178L0 230Z" fill="#848ca5"></path><path d="M0 313L148 295L295 313L443 323L591 264L738 288L886 278L1034 288L1182 292L1329 274L1477 327L1625 253L1772 274L1920 313L1920 258L1772 223L1625 227L1477 283L1329 248L1182 220L1034 237L886 234L738 216L591 220L443 251L295 272L148 230L0 272Z" fill="#b2bbd1"></path><path d="M0 351L148 351L295 351L443 351L591 351L738 351L886 351L1034 351L1182 351L1329 351L1477 351L1625 351L1772 351L1920 351L1920 311L1772 272L1625 251L1477 325L1329 272L1182 290L1034 286L886 276L738 286L591 262L443 321L295 311L148 293L0 311Z" fill="#e2ebff"></path></svg>