<svg id="visual" viewBox="0 0 1920 350" width="1920" height="350" xmlns="http://www.w3.org/2000/svg" xmlns:xlink="http://www.w3.org/1999/xlink" version="1.1"><path d="M0 50L148 26L295 29L443 26L591 36L738 57L886 29L1034 43L1182 47L1329 26L1477 61L1625 47L1772 29L1920 50L1920 0L1772 0L1625 0L1477 0L1329 0L1182 0L1034 0L886 0L738 0L591 0L443 0L295 0L148 0L0 0Z" fill="#e2ebff"></path><path d="M0 92L148 47L295 71L443 78L591 50L738 82L886 71L1034 82L1182 61L1329 75L1477 113L1625 85L1772 64L1920 64L1920 48L1772 27L1625 45L1477 59L1329 24L1182 45L1034 41L886 27L738 55L591 34L443 24L295 27L148 24L0 48Z" fill="#b2bbd1"></path><path d="M0 145L148 134L295 152L443 141L591 123L738 110L886 145L1034 110L1182 96L1329 145L1477 145L1625 148L1772 159L1920 148L1920 62L1772 62L1625 83L1477 111L1329 73L1182 59L1034 80L886 69L738 80L591 48L443 76L295 69L148 45L0 90Z" fill="#848ca5"></path><path d="M0 229L148 190L295 215L443 246L591 264L738 173L886 253L1034 218L1182 218L1329 232L1477 250L1625 222L1772 281L1920 271L1920 146L1772 157L1625 146L1477 143L1329 143L1182 94L1034 108L886 143L738 108L591 121L443 139L295 150L148 132L0 143Z" fill="#59617b"></path><path d="M0 302L148 302L295 330L443 299L591 320L738 299L886 295L1034 337L1182 309L1329 337L1477 330L1625 320L1772 334L1920 309L1920 269L1772 279L1625 220L1477 248L1329 230L1182 216L1034 216L886 251L738 171L591 262L443 244L295 213L148 188L0 227Z" fill="#313853"></path><path d="M0 351L148 351L295 351L443 351L591 351L738 351L886 351L1034 351L1182 351L1329 351L1477 351L1625 351L1772 351L1920 351L1920 307L1772 332L1625 318L1477 328L1329 335L1182 307L1034 335L886 293L738 297L591 318L443 297L295 328L148 300L0 300Z" fill="#0a142e"></path></svg>