<svg id="visual" viewBox="0 0 1920 350" width="1920" height="350" xmlns="http://www.w3.org/2000/svg" xmlns:xlink="http://www.w3.org/1999/xlink" version="1.1"><path d="M0 50L148 26L295 50L443 22L591 22L738 40L886 54L1034 47L1182 29L1329 29L1477 26L1625 47L1772 50L1920 43L1920 0L1772 0L1625 0L1477 0L1329 0L1182 0L1034 0L886 0L738 0L591 0L443 0L295 0L148 0L0 0Z" fill="#0a142e"></path><path d="M0 96L148 75L295 68L443 36L591 78L738 89L886 103L1034 68L1182 61L1329 43L1477 68L1625 85L1772 99L1920 82L1920 41L1772 48L1625 45L1477 24L1329 27L1182 27L1034 45L886 52L738 38L591 20L443 20L295 48L148 24L0 48Z" fill="#313853"></path><path d="M0 162L148 141L295 103L443 180L591 141L738 218L886 190L1034 183L1182 190L1329 85L1477 113L1625 141L1772 141L1920 145L1920 80L1772 97L1625 83L1477 66L1329 41L1182 59L1034 66L886 101L738 87L591 76L443 34L295 66L148 73L0 94Z" fill="#59617b"></path><path d="M0 285L148 229L295 222L443 250L591 225L738 274L886 229L1034 242L1182 274L1329 242L1477 215L1625 274L1772 253L1920 281L1920 143L1772 139L1625 139L1477 111L1329 83L1182 188L1034 181L886 188L738 216L591 139L443 178L295 101L148 139L0 160Z" fill="#848ca5"></path><path d="M0 327L148 271L295 267L443 330L591 274L738 309L886 281L1034 271L1182 313L1329 302L1477 271L1625 313L1772 316L1920 327L1920 279L1772 251L1625 272L1477 213L1329 240L1182 272L1034 240L886 227L738 272L591 223L443 248L295 220L148 227L0 283Z" fill="#b2bbd1"></path><path d="M0 351L148 351L295 351L443 351L591 351L738 351L886 351L1034 351L1182 351L1329 351L1477 351L1625 351L1772 351L1920 351L1920 325L1772 314L1625 311L1477 269L1329 300L1182 311L1034 269L886 279L738 307L591 272L443 328L295 265L148 269L0 325Z" fill="#e2ebff"></path></svg>